<svg width="20" height="20" viewBox="0 0 20 20" fill="none" xmlns="http://www.w3.org/2000/svg">
<mask id="path-1-inside-1_0_497" fill="white">
<path d="M18.4506 5.45806C19.3055 7.05256 19.664 8.78059 19.5796 10.4648C19.4166 13.7146 17.6045 16.8013 14.5279 18.451C12.731 19.4145 10.7644 19.7475 8.88208 19.5265C5.87142 19.173 3.07623 17.4025 1.53511 14.5283C-0.969563 9.85723 0.786653 4.04011 5.45773 1.53542C6.56923 0.939423 7.74562 0.584685 8.92683 0.453073C10.6573 0.260264 12.3981 0.546327 13.9604 1.25424C15.8133 2.09384 17.415 3.52682 18.4506 5.45806Z"/>
</mask>
<path d="M14.5279 18.451L14.2917 18.0103L14.7344 18.9064L14.5279 18.451ZM13.9604 1.25424L13.7362 1.70118L14.2132 0.822868L13.9604 1.25424ZM19.5796 10.4648L20.0792 10.4851L19.0805 10.4343L19.5796 10.4648ZM8.92683 0.453073L8.89444 -0.045877L8.42793 -0.015587L8.42683 0.451901L8.92683 0.453073ZM5.694 1.97607C6.36988 1.61366 7.61074 1.14933 9.07794 0.977606C10.5421 0.806235 12.1981 0.929801 13.7362 1.70118L14.1845 0.807297C12.4246 -0.0753242 10.5594 -0.202614 8.96169 -0.0156163C7.36709 0.171024 6.00562 0.674289 5.22145 1.09477L5.694 1.97607ZM19.08 10.4446C19.0113 12.1389 17.9469 16.0503 14.2917 18.0103L14.7642 18.8916C18.8417 16.7052 20.0021 12.3871 20.0792 10.4851L19.08 10.4446ZM8.42683 0.451901L8.38208 19.5253L9.38207 19.5277L9.42683 0.454245L8.42683 0.451901ZM8.95923 0.952024C9.48261 0.91804 10.3646 0.91501 11.28 1.01902C12.2082 1.12449 13.1066 1.33341 13.7076 1.68561L14.2132 0.822868C13.428 0.362681 12.3598 0.135289 11.3929 0.0254145C10.4131 -0.0859183 9.47135 -0.0833355 8.89444 -0.045877L8.95923 0.952024ZM19.0805 10.4343C19.0246 11.3481 18.7162 12.852 17.9706 14.3263C17.2268 15.797 16.0659 17.2048 14.3215 17.9956L14.7344 18.9064C16.7443 17.9952 18.0494 16.3864 18.863 14.7776C19.6747 13.1726 20.015 11.5345 20.0786 10.4954L19.0805 10.4343ZM13.9604 1.25424L14.3731 0.343386L14.3731 0.343386L13.9604 1.25424ZM19.5796 10.4648L20.5783 10.5149L20.5783 10.5149L19.5796 10.4648ZM8.92683 0.453073L8.8161 -0.540779L8.92683 0.453073ZM8.88208 19.5265L8.76547 20.5197L8.88208 19.5265ZM2.4164 14.0558C0.172719 9.87139 1.74594 4.66042 5.93028 2.41672L4.98517 0.654124C-0.172635 3.4198 -2.11185 9.84307 0.65381 15.0009L2.4164 14.0558ZM13.5476 2.16509C15.2074 2.9172 16.6411 4.19965 17.5693 5.93063L19.3319 4.9855C18.1889 2.85399 16.4191 1.27048 14.3731 0.343386L13.5476 2.16509ZM17.5693 5.93063C18.3359 7.36039 18.6564 8.90706 18.5808 10.4147L20.5783 10.5149C20.6716 8.65411 20.2752 6.74473 19.3319 4.9855L17.5693 5.93063ZM18.5808 10.4147C18.4347 13.3289 16.8103 16.0924 14.0554 17.5697L15.0005 19.3323C18.3987 17.5101 20.3985 14.1002 20.5783 10.5149L18.5808 10.4147ZM5.93028 2.41672C6.92759 1.88196 7.98091 1.56466 9.03756 1.44693L8.8161 -0.540779C7.51033 -0.395289 6.21087 -0.00311192 4.98517 0.654124L5.93028 2.41672ZM9.03756 1.44693C10.5867 1.27432 12.1468 1.53034 13.5476 2.16509L14.3731 0.343386C12.6494 -0.437689 10.7279 -0.753796 8.8161 -0.540779L9.03756 1.44693ZM14.0554 17.5697C12.4445 18.4334 10.6844 18.7312 8.99868 18.5333L8.76547 20.5197C10.8444 20.7638 13.0175 20.3956 15.0005 19.3323L14.0554 17.5697ZM8.99868 18.5333C6.29877 18.2163 3.79654 16.6297 2.4164 14.0558L0.65381 15.0009C2.35592 18.1753 5.44406 20.1297 8.76547 20.5197L8.99868 18.5333Z" fill="url(#paint0_linear_0_497)" mask="url(#path-1-inside-1_0_497)"/>
<defs>
<linearGradient id="paint0_linear_0_497" x1="0.755987" y1="8.7235" x2="20.9646" y2="9.99221" gradientUnits="userSpaceOnUse">
<stop offset="0.288448" stop-color="#555248"/>
<stop offset="0.780176" stop-color="#1B1A17" stop-opacity="0"/>
</linearGradient>
</defs>
</svg>
