<svg width="26" height="26" viewBox="0 0 26 26" fill="none" xmlns="http://www.w3.org/2000/svg">
<mask id="path-1-inside-1_0_488" fill="white">
<path d="M24.0648 7.06572C25.1835 9.15186 25.6525 11.4127 25.542 13.6163C25.3288 17.8681 22.9579 21.9065 18.9327 24.0649C16.5816 25.3255 14.0087 25.7612 11.5459 25.472C7.60692 25.0096 3.94984 22.6931 1.93351 18.9327C-1.34348 12.8213 0.954268 5.21054 7.06567 1.93356C8.5199 1.15378 10.059 0.689665 11.6045 0.517472C13.8685 0.265211 16.1461 0.639479 18.1901 1.56567C20.6143 2.66415 22.71 4.53899 24.0648 7.06572Z"/>
</mask>
<path d="M18.9327 24.0649L18.4601 23.1836L19.3456 24.9757L18.9327 24.0649ZM18.1901 1.56567L17.7418 2.45956L18.6958 0.702931L18.1901 1.56567ZM25.542 13.6163L26.5412 13.6568L24.5439 13.5551L25.542 13.6163ZM11.6045 0.517472L11.5397 -0.480427L10.6067 -0.419848L10.6045 0.515125L11.6045 0.517472ZM7.53823 2.81486C8.38505 2.36078 9.96683 1.76674 11.8424 1.54722C13.7118 1.32842 15.8061 1.48879 17.7418 2.45956L18.6384 0.671788C16.2591 -0.521452 13.7464 -0.68928 11.6099 -0.439218C9.47952 -0.189871 7.65654 0.482037 6.59311 1.05226L7.53823 2.81486ZM24.5428 13.5758C24.4559 15.7207 23.0965 20.6975 18.4601 23.1836L19.4052 24.9462C24.8861 22.0073 26.4374 16.2172 26.5412 13.6568L24.5428 13.5758ZM10.6045 0.515125L10.5459 25.4697L12.5459 25.4744L12.6045 0.519818L10.6045 0.515125ZM11.6693 1.51537C12.3355 1.47211 13.4688 1.46799 14.6442 1.60154C15.8452 1.73801 16.9619 2.00495 17.6845 2.42842L18.6958 0.702931C17.6047 0.0635043 16.1485 -0.240392 14.87 -0.385669C13.5658 -0.533861 12.313 -0.530637 11.5397 -0.480427L11.6693 1.51537ZM24.5439 13.5551C24.4733 14.7074 24.081 16.6286 23.1283 18.5124C22.1793 20.3887 20.7103 22.1611 18.5198 23.1541L19.3456 24.9757C22.0671 23.7419 23.8244 21.5675 24.913 19.415C25.9979 17.2699 26.4542 15.0802 26.5401 13.6774L24.5439 13.5551ZM18.1901 1.56567L19.0156 -0.256032L19.0156 -0.256032L18.1901 1.56567ZM25.542 13.6163L27.5395 13.7164L25.542 13.6163ZM11.6045 0.517472L11.383 -1.47023L11.6045 0.517472ZM11.5459 25.472L11.3127 27.4584L11.5459 25.472ZM3.69611 17.9876C0.941095 12.8497 2.87284 6.45116 8.01079 3.69615L6.12055 0.17096C-0.964308 3.96992 -3.62805 12.793 0.170911 19.8779L3.69611 17.9876ZM17.3646 3.38738C19.4027 4.31087 21.1622 5.88464 22.3022 8.01084L25.8274 6.1206C24.2578 3.19334 21.826 1.01743 19.0156 -0.256032L17.3646 3.38738ZM22.3022 8.01084C23.2442 9.76751 23.6373 11.6657 23.5445 13.5161L27.5395 13.7164C27.6677 11.1598 27.1227 8.5362 25.8274 6.1206L22.3022 8.01084ZM23.5445 13.5161C23.3649 17.0967 21.3696 20.4888 17.9876 22.3023L19.8778 25.8275C24.5463 23.3242 27.2926 18.6394 27.5395 13.7164L23.5445 13.5161ZM8.01079 3.69615C9.23662 3.03885 10.5296 2.64961 11.8259 2.50517L11.383 -1.47023C9.58845 -1.27028 7.80318 -0.731283 6.12055 0.17096L8.01079 3.69615ZM11.8259 2.50517C13.7273 2.29333 15.6436 2.60751 17.3646 3.38738L19.0156 -0.256032C16.6486 -1.32855 14.0098 -1.76291 11.383 -1.47023L11.8259 2.50517ZM17.9876 22.3023C16.0087 23.3634 13.8486 23.7287 11.7791 23.4857L11.3127 27.4584C14.1687 27.7937 17.1546 27.2877 19.8778 25.8275L17.9876 22.3023ZM11.7791 23.4857C8.46163 23.0962 5.39046 21.1475 3.69611 17.9876L0.170911 19.8779C2.50922 24.2387 6.75221 26.923 11.3127 27.4584L11.7791 23.4857Z" fill="url(#paint0_linear_0_488)" mask="url(#path-1-inside-1_0_488)"/>
<defs>
<linearGradient id="paint0_linear_0_488" x1="0.914146" y1="11.338" x2="27.354" y2="12.9979" gradientUnits="userSpaceOnUse">
<stop offset="0.288448" stop-color="white"/>
<stop offset="0.780176" stop-color="white" stop-opacity="0"/>
</linearGradient>
</defs>
</svg>
